<svg width="40" height="40" viewBox="0 0 40 40" fill="none" xmlns="http://www.w3.org/2000/svg">
<g clip-path="url(#clip0_38_238)">
<path d="M28.75 38.75H11.25C5.75 38.75 1.25 34.25 1.25 28.75V11.25C1.25 5.75 5.75 1.25 11.25 1.25H28.75C34.25 1.25 38.75 5.75 38.75 11.25V28.75C38.75 34.25 34.25 38.75 28.75 38.75Z" stroke="white" stroke-width="2" stroke-miterlimit="10" stroke-linecap="round" stroke-linejoin="round"/>
<path d="M32.5 20H26.25V16.5C26.25 15.625 26.875 15 27.75 15H31.25V8.75H26.25C22.75 8.75 20 11.5 20 15V20H15V26.25H20V38.75H26.25V26.25H30L32.5 20Z" stroke="white" stroke-width="2" stroke-miterlimit="10" stroke-linecap="round" stroke-linejoin="round"/>
</g>
<defs>
<clipPath id="clip0_38_238">
<rect width="40" height="40" fill="white"/>
</clipPath>
</defs>
</svg>
