<svg width="42" height="43" viewBox="0 0 42 43" fill="none" xmlns="http://www.w3.org/2000/svg">
<path d="M28.1688 26.5236C28.5625 25.321 28.5625 24.3855 28.4312 24.1183C28.3 23.851 28.0375 23.851 27.5125 23.5838C26.9875 23.3165 24.625 22.1138 24.2313 21.9802C23.8375 21.8465 23.3125 21.8465 23.05 22.3811C22.525 23.0492 22.1313 23.7174 21.7375 24.1183C21.475 24.3855 20.95 24.5192 20.5562 24.2519C20.0312 23.9846 18.4562 23.4501 16.6187 21.8465C15.175 20.5102 14.2563 18.9067 13.8625 18.3721C13.6 17.8376 13.8625 17.5703 14.125 17.3031C14.3875 17.0358 14.65 16.7686 14.9125 16.5013C15.175 16.234 15.3062 16.1004 15.4375 15.6995C15.5688 15.4322 15.4375 15.0313 15.3062 14.7641C15.175 14.4968 14.2563 12.0915 13.8625 11.156C13.6 10.4879 13.3375 10.4879 12.8125 10.4879C12.6812 10.3542 12.4188 10.3542 12.2875 10.3542C11.6313 10.3542 10.975 10.4879 10.5813 11.0224C10.0563 11.5569 8.875 12.7596 8.875 15.165C8.875 17.5703 10.5812 19.9757 10.8438 20.243C11.1063 20.5102 14.2563 25.5882 19.1125 27.7263C22.9188 29.3299 24.1 29.1963 24.8875 29.0626C26.2 28.6617 27.775 27.7263 28.1688 26.5236Z" stroke="white" stroke-width="2" stroke-miterlimit="10" stroke-linecap="round" stroke-linejoin="round"/>
<path d="M20.6875 1C9.79375 1 1 3.539 1 18.3721C1 27.9935 4.675 32.4034 10.1875 34.4078V40.2876C10.1875 41.0894 11.1062 41.4903 11.7625 40.9558L16.8813 35.7442C18.0625 35.7442 19.375 35.7442 20.6875 35.7442C31.5813 35.7442 40.375 33.2052 40.375 18.3721C40.375 3.539 31.5813 1 20.6875 1Z" stroke="white" stroke-width="2" stroke-miterlimit="10" stroke-linecap="round" stroke-linejoin="round"/>
<path d="M20.0312 14.6304C21.7375 14.6304 23.05 15.9667 23.05 17.7039" stroke="white" stroke-width="2" stroke-miterlimit="10" stroke-linecap="round" stroke-linejoin="round"/>
<path d="M20.0312 6.34521C26.2 6.34521 31.1875 11.4232 31.1875 17.7039" stroke="white" stroke-width="2" stroke-miterlimit="10" stroke-linecap="round" stroke-linejoin="round"/>
<path d="M20.0312 10.4878C23.9687 10.4878 27.1187 13.6949 27.1187 17.7039" stroke="white" stroke-width="2" stroke-miterlimit="10" stroke-linecap="round" stroke-linejoin="round"/>
</svg>
