<svg width="42" height="42" viewBox="0 0 42 42" fill="none" xmlns="http://www.w3.org/2000/svg">
<path d="M22.3125 1.3125C12.2063 1.3125 3.9375 9.58125 3.9375 19.6875C3.9375 24.15 5.64375 28.35 8.26875 31.5L5.25 40.6875L14.8313 36.4875C17.0625 37.5375 19.6875 38.0625 22.3125 38.0625C32.4187 38.0625 40.6875 29.7937 40.6875 19.6875C40.6875 9.58125 32.4187 1.3125 22.3125 1.3125Z" stroke="white" stroke-width="2" stroke-miterlimit="10" stroke-linecap="round" stroke-linejoin="round"/>
<path d="M32.4188 26.3813C32.8125 25.2 32.8125 24.2812 32.6812 24.0187C32.55 23.7562 32.2875 23.7562 31.7625 23.4937C31.2375 23.2312 28.875 22.05 28.4813 21.9187C28.0875 21.7875 27.5625 21.7875 27.3 22.3125C26.775 22.9688 26.3812 23.625 25.9875 24.0187C25.725 24.2812 25.2 24.4125 24.8062 24.15C24.2812 23.8875 22.7062 23.3625 20.8687 21.7875C19.425 20.475 18.5063 18.9 18.1125 18.375C17.85 17.85 18.1125 17.5875 18.375 17.325C18.6375 17.0625 18.9 16.8 19.1625 16.5375C19.425 16.275 19.5562 16.1438 19.6875 15.75C19.8188 15.4875 19.6875 15.0938 19.5562 14.8313C19.425 14.5688 18.5063 12.2062 18.1125 11.2875C17.85 10.5 17.5875 10.5 17.0625 10.5C16.9312 10.5 16.6688 10.5 16.5375 10.5C15.8813 10.5 15.225 10.6312 14.8313 11.1562C14.3063 11.6813 13.125 12.8625 13.125 15.225C13.125 17.5875 14.8312 19.95 15.0938 20.2125C15.3563 20.475 18.5062 25.4625 23.3625 27.5625C27.1687 29.1375 28.35 29.0063 29.1375 28.875C30.45 28.4812 32.025 27.5625 32.4188 26.3813Z" stroke="white" stroke-width="2"/>
</svg>
